<svg width="27" height="32" viewBox="0 0 27 32" fill="none" xmlns="http://www.w3.org/2000/svg">
<path d="M9.27595 0C5.50867 0 2.43354 2.75445 2.43354 6.12628C2.43354 9.49833 5.50886 12.2509 9.27595 12.2509C13.0432 12.2509 16.1184 9.49817 16.1184 6.12628C16.1186 2.75422 13.0433 0 9.27595 0ZM9.27595 13.7923C4.15626 13.7923 0 17.5127 0 22.0952V26.8006C0.000247215 27.0637 0.11719 27.316 0.325354 27.5021C0.533525 27.688 0.815613 27.7922 1.10959 27.792H8.93871C8.44721 26.7065 8.17054 25.5257 8.17054 24.2891C8.17054 20.3069 10.9855 16.8831 14.9155 15.5138C13.3532 14.4381 11.4001 13.7923 9.27611 13.7923L9.27595 13.7923ZM18.693 16.8537C14.1183 16.8537 10.3861 20.1944 10.3861 24.2892C10.3861 28.384 14.1183 31.7247 18.693 31.7247C23.2678 31.7247 27 28.384 27 24.2892C27 20.1944 23.2678 16.8537 18.693 16.8537ZM18.8619 20.3758C19.0542 20.3889 19.2478 20.4172 19.4394 20.463C20.9725 20.8297 21.976 22.1721 21.7693 23.5806C21.6131 24.6459 20.7987 25.5132 19.7249 25.8732V27.2112H19.7247C19.7314 27.4778 19.6176 27.7359 19.4092 27.9266C19.2008 28.1174 18.9153 28.2249 18.6171 28.2249C18.3189 28.2249 18.0334 28.1174 17.8249 27.9266C17.6165 27.7359 17.5028 27.4778 17.5094 27.2112V25.0597C17.506 24.7979 17.6185 24.5454 17.8224 24.3574C18.0264 24.1695 18.305 24.0615 18.5975 24.0568C18.6309 24.0562 18.664 24.0568 18.6971 24.0588C19.1513 24.0274 19.5083 23.738 19.5688 23.325C19.6329 22.8882 19.3411 22.4861 18.8657 22.3724C18.3903 22.2586 17.9178 22.4706 17.73 22.8778L17.7302 22.8776C17.5799 23.206 17.2452 23.4375 16.8526 23.4851C16.4597 23.5327 16.0686 23.389 15.8261 23.1084C15.5835 22.8278 15.5269 22.4528 15.6772 22.1243C16.2073 20.9756 17.5156 20.2849 18.8615 20.3759L18.8619 20.3758Z" fill="#CAD3DB"/>
</svg>
