<svg width="30" height="24" viewBox="0 0 30 24" fill="none" xmlns="http://www.w3.org/2000/svg">
<path d="M28.1787 0H5.30413C5.04051 0 4.78752 0.103852 4.6009 0.288638C4.41452 0.473647 4.30953 0.72446 4.30953 0.98582V4.60125H0.994371C0.73075 4.60125 0.477762 4.70511 0.291143 4.89012C0.104759 5.0749 0 5.32571 0 5.5873V23.0066C0 23.2679 0.104754 23.5187 0.291143 23.7037C0.477756 23.8885 0.730744 23.9924 0.994371 23.9924H23.5375C23.8013 23.9924 24.0543 23.8885 24.2407 23.7037C24.4273 23.5187 24.5321 23.2679 24.5321 23.0066V19.3911H28.1789C28.4425 19.3911 28.6955 19.2873 28.8821 19.1023C29.0685 18.9175 29.1732 18.6667 29.1732 18.4051V0.98582C29.1732 0.724466 29.0685 0.473653 28.8821 0.288638C28.6955 0.103858 28.4425 0 28.1789 0H28.1787ZM20.2555 20.2786C20.1681 20.4286 20.0423 20.5531 19.8911 20.6397C19.7398 20.7262 19.5682 20.7718 19.3934 20.7715H5.10508C4.86111 20.7738 4.62501 20.6872 4.4414 20.5281C4.25755 20.369 4.13939 20.1484 4.10886 19.9086C4.07857 19.6688 4.138 19.426 4.27628 19.2268L7.22678 15.0527C7.38009 14.8386 7.61319 14.6937 7.87471 14.6503C8.13603 14.6072 8.40404 14.6691 8.61909 14.8227L10.2103 15.9401L13.8571 11.6674C14.0601 11.4302 14.3645 11.3018 14.6778 11.3213C14.9911 11.3405 15.2767 11.5056 15.4483 11.766L20.2222 19.2924C20.3147 19.4394 20.3663 19.6079 20.3721 19.781C20.3781 19.9541 20.3376 20.1256 20.2555 20.2785L20.2555 20.2786ZM7.22692 10.583C7.22692 9.85074 7.52038 9.14857 8.04251 8.63063C8.5649 8.11296 9.27321 7.82205 10.0116 7.82205C10.7502 7.82205 11.4585 8.11298 11.9807 8.63063C12.5031 9.14852 12.7965 9.85074 12.7965 10.583C12.7965 11.3151 12.5031 12.0173 11.9807 12.5352C11.4585 13.0528 10.7502 13.3437 10.0116 13.3437C9.27321 13.3437 8.56489 13.0528 8.04251 12.5352C7.52036 12.0173 7.22692 11.3151 7.22692 10.583ZM27.1842 17.4193H24.532V5.58731C24.532 5.32573 24.4272 5.07491 24.2406 4.89013C24.0542 4.70512 23.8013 4.60126 23.5374 4.60126H6.29857V1.97188H27.1841L27.1842 17.4193Z" fill="#CAD3DB"/>
</svg>
